<mxfile host="app.diagrams.net" agent="Mozilla/5.0 (Windows NT 10.0; Win64; x64) AppleWebKit/537.36 (KHTML, like Gecko) Chrome/135.0.0.0 Safari/537.36 Edg/135.0.0.0" version="26.2.13">
  <diagram id="book-rental-erd" name="Book Rental ERD">
    <mxGraphModel dx="811" dy="430" grid="1" gridSize="10" guides="1" tooltips="1" connect="1" arrows="1" fold="1" page="1" pageScale="1" pageWidth="850" pageHeight="1100" math="0" shadow="0">
      <root>
        <mxCell id="0" />
        <mxCell id="1" parent="0" />
        <mxCell id="title-main" value="Book Rental Store" style="text;html=1;strokeColor=none;fillColor=none;align=center;verticalAlign=middle;whiteSpace=wrap;rounded=0;fontSize=18;fontStyle=1;fontFamily=Comic Sans MS;" parent="1" vertex="1">
          <mxGeometry x="320" y="90" width="200" height="30" as="geometry" />
        </mxCell>
        <mxCell id="authors-entity" value="Authors" style="swimlane;fontStyle=1;align=center;verticalAlign=top;childLayout=stackLayout;horizontal=1;startSize=26;horizontalStack=0;resizeParent=1;resizeParentMax=0;resizeLast=0;collapsible=0;marginBottom=0;whiteSpace=wrap;html=1;fontFamily=Comic Sans MS;" parent="1" vertex="1">
          <mxGeometry x="160" y="160" width="160" height="136" as="geometry" />
        </mxCell>
        <mxCell id="authors-attr1" value="name" style="text;strokeColor=#6c8ebf;fillColor=#dae8fc;align=left;verticalAlign=top;spacingLeft=4;spacingRight=4;overflow=hidden;rotatable=0;points=[[0,0.5],[1,0.5]];portConstraint=eastwest;whiteSpace=wrap;html=1;fontFamily=Comic Sans MS;fontStyle=0" parent="authors-entity" vertex="1">
          <mxGeometry y="26" width="160" height="22" as="geometry" />
        </mxCell>
        <mxCell id="authors-attr2" value="email" style="text;strokeColor=#6c8ebf;fillColor=#dae8fc;align=left;verticalAlign=top;spacingLeft=4;spacingRight=4;overflow=hidden;rotatable=0;points=[[0,0.5],[1,0.5]];portConstraint=eastwest;whiteSpace=wrap;html=1;fontFamily=Comic Sans MS;fontStyle=0" parent="authors-entity" vertex="1">
          <mxGeometry y="48" width="160" height="22" as="geometry" />
        </mxCell>
        <mxCell id="authors-attr3" value="phone" style="text;strokeColor=#6c8ebf;fillColor=#dae8fc;align=left;verticalAlign=top;spacingLeft=4;spacingRight=4;overflow=hidden;rotatable=0;points=[[0,0.5],[1,0.5]];portConstraint=eastwest;whiteSpace=wrap;html=1;fontFamily=Comic Sans MS;fontStyle=0" parent="authors-entity" vertex="1">
          <mxGeometry y="70" width="160" height="22" as="geometry" />
        </mxCell>
        <mxCell id="authors-attr4" value="country" style="text;strokeColor=#6c8ebf;fillColor=#dae8fc;align=left;verticalAlign=top;spacingLeft=4;spacingRight=4;overflow=hidden;rotatable=0;points=[[0,0.5],[1,0.5]];portConstraint=eastwest;whiteSpace=wrap;html=1;fontFamily=Comic Sans MS;fontStyle=0" parent="authors-entity" vertex="1">
          <mxGeometry y="92" width="160" height="22" as="geometry" />
        </mxCell>
        <mxCell id="authors-attr5" value="bookIds" style="text;strokeColor=#6c8ebf;fillColor=#dae8fc;align=left;verticalAlign=top;spacingLeft=4;spacingRight=4;overflow=hidden;rotatable=0;points=[[0,0.5],[1,0.5]];portConstraint=eastwest;whiteSpace=wrap;html=1;fontFamily=Comic Sans MS;fontStyle=0" parent="authors-entity" vertex="1">
          <mxGeometry y="114" width="160" height="22" as="geometry" />
        </mxCell>
        <mxCell id="books-entity" value="Books" style="swimlane;fontStyle=1;align=center;verticalAlign=top;childLayout=stackLayout;horizontal=1;startSize=26;horizontalStack=0;resizeParent=1;resizeParentMax=0;resizeLast=0;collapsible=0;marginBottom=0;whiteSpace=wrap;html=1;fontFamily=Comic Sans MS;" parent="1" vertex="1">
          <mxGeometry x="520" y="160" width="160" height="136" as="geometry" />
        </mxCell>
        <mxCell id="books-attr1" value="title" style="text;strokeColor=#6c8ebf;fillColor=#dae8fc;align=left;verticalAlign=top;spacingLeft=4;spacingRight=4;overflow=hidden;rotatable=0;points=[[0,0.5],[1,0.5]];portConstraint=eastwest;whiteSpace=wrap;html=1;fontFamily=Comic Sans MS;fontStyle=0" parent="books-entity" vertex="1">
          <mxGeometry y="26" width="160" height="22" as="geometry" />
        </mxCell>
        <mxCell id="books-attr2" value="description" style="text;strokeColor=#6c8ebf;fillColor=#dae8fc;align=left;verticalAlign=top;spacingLeft=4;spacingRight=4;overflow=hidden;rotatable=0;points=[[0,0.5],[1,0.5]];portConstraint=eastwest;whiteSpace=wrap;html=1;fontFamily=Comic Sans MS;fontStyle=0" parent="books-entity" vertex="1">
          <mxGeometry y="48" width="160" height="22" as="geometry" />
        </mxCell>
        <mxCell id="books-attr3" value="publishedYear" style="text;strokeColor=#6c8ebf;fillColor=#dae8fc;align=left;verticalAlign=top;spacingLeft=4;spacingRight=4;overflow=hidden;rotatable=0;points=[[0,0.5],[1,0.5]];portConstraint=eastwest;whiteSpace=wrap;html=1;fontFamily=Comic Sans MS;fontStyle=0" parent="books-entity" vertex="1">
          <mxGeometry y="70" width="160" height="22" as="geometry" />
        </mxCell>
        <mxCell id="books-attr4" value="authorIds" style="text;strokeColor=#6c8ebf;fillColor=#dae8fc;align=left;verticalAlign=top;spacingLeft=4;spacingRight=4;overflow=hidden;rotatable=0;points=[[0,0.5],[1,0.5]];portConstraint=eastwest;whiteSpace=wrap;html=1;fontFamily=Comic Sans MS;fontStyle=0" parent="books-entity" vertex="1">
          <mxGeometry y="92" width="160" height="22" as="geometry" />
        </mxCell>
        <mxCell id="books-attr5" value="rentalIds" style="text;strokeColor=#6c8ebf;fillColor=#dae8fc;align=left;verticalAlign=top;spacingLeft=4;spacingRight=4;overflow=hidden;rotatable=0;points=[[0,0.5],[1,0.5]];portConstraint=eastwest;whiteSpace=wrap;html=1;fontFamily=Comic Sans MS;fontStyle=0" parent="books-entity" vertex="1">
          <mxGeometry y="114" width="160" height="22" as="geometry" />
        </mxCell>
        <mxCell id="user-entity" value="User" style="swimlane;fontStyle=1;align=center;verticalAlign=top;childLayout=stackLayout;horizontal=1;startSize=26;horizontalStack=0;resizeParent=1;resizeParentMax=0;resizeLast=0;collapsible=0;marginBottom=0;whiteSpace=wrap;html=1;fontFamily=Comic Sans MS;" parent="1" vertex="1">
          <mxGeometry x="160" y="400" width="160" height="114" as="geometry" />
        </mxCell>
        <mxCell id="user-attr1" value="name" style="text;strokeColor=#6c8ebf;fillColor=#dae8fc;align=left;verticalAlign=top;spacingLeft=4;spacingRight=4;overflow=hidden;rotatable=0;points=[[0,0.5],[1,0.5]];portConstraint=eastwest;whiteSpace=wrap;html=1;fontFamily=Comic Sans MS;fontStyle=0" parent="user-entity" vertex="1">
          <mxGeometry y="26" width="160" height="22" as="geometry" />
        </mxCell>
        <mxCell id="user-attr2" value="email" style="text;strokeColor=#6c8ebf;fillColor=#dae8fc;align=left;verticalAlign=top;spacingLeft=4;spacingRight=4;overflow=hidden;rotatable=0;points=[[0,0.5],[1,0.5]];portConstraint=eastwest;whiteSpace=wrap;html=1;fontFamily=Comic Sans MS;fontStyle=0" parent="user-entity" vertex="1">
          <mxGeometry y="48" width="160" height="22" as="geometry" />
        </mxCell>
        <mxCell id="user-attr3" value="phone" style="text;strokeColor=#6c8ebf;fillColor=#dae8fc;align=left;verticalAlign=top;spacingLeft=4;spacingRight=4;overflow=hidden;rotatable=0;points=[[0,0.5],[1,0.5]];portConstraint=eastwest;whiteSpace=wrap;html=1;fontFamily=Comic Sans MS;fontStyle=0" parent="user-entity" vertex="1">
          <mxGeometry y="70" width="160" height="22" as="geometry" />
        </mxCell>
        <mxCell id="user-attr4" value="rentalIds" style="text;strokeColor=#6c8ebf;fillColor=#dae8fc;align=left;verticalAlign=top;spacingLeft=4;spacingRight=4;overflow=hidden;rotatable=0;points=[[0,0.5],[1,0.5]];portConstraint=eastwest;whiteSpace=wrap;html=1;fontFamily=Comic Sans MS;fontStyle=0" parent="user-entity" vertex="1">
          <mxGeometry y="92" width="160" height="22" as="geometry" />
        </mxCell>
        <mxCell id="rental-entity" value="Rental" style="swimlane;fontStyle=1;align=center;verticalAlign=top;childLayout=stackLayout;horizontal=1;startSize=26;horizontalStack=0;resizeParent=1;resizeParentMax=0;resizeLast=0;collapsible=0;marginBottom=0;whiteSpace=wrap;html=1;fontFamily=Comic Sans MS;" parent="1" vertex="1">
          <mxGeometry x="520" y="400" width="160" height="114" as="geometry" />
        </mxCell>
        <mxCell id="rental-attr1" value="userId" style="text;strokeColor=#6c8ebf;fillColor=#dae8fc;align=left;verticalAlign=top;spacingLeft=4;spacingRight=4;overflow=hidden;rotatable=0;points=[[0,0.5],[1,0.5]];portConstraint=eastwest;whiteSpace=wrap;html=1;fontFamily=Comic Sans MS;fontStyle=0" parent="rental-entity" vertex="1">
          <mxGeometry y="26" width="160" height="22" as="geometry" />
        </mxCell>
        <mxCell id="rental-attr2" value="bookId" style="text;strokeColor=#6c8ebf;fillColor=#dae8fc;align=left;verticalAlign=top;spacingLeft=4;spacingRight=4;overflow=hidden;rotatable=0;points=[[0,0.5],[1,0.5]];portConstraint=eastwest;whiteSpace=wrap;html=1;fontFamily=Comic Sans MS;fontStyle=0" parent="rental-entity" vertex="1">
          <mxGeometry y="48" width="160" height="22" as="geometry" />
        </mxCell>
        <mxCell id="rental-attr3" value="dateRented" style="text;strokeColor=#6c8ebf;fillColor=#dae8fc;align=left;verticalAlign=top;spacingLeft=4;spacingRight=4;overflow=hidden;rotatable=0;points=[[0,0.5],[1,0.5]];portConstraint=eastwest;whiteSpace=wrap;html=1;fontFamily=Comic Sans MS;fontStyle=0" parent="rental-entity" vertex="1">
          <mxGeometry y="70" width="160" height="22" as="geometry" />
        </mxCell>
        <mxCell id="rental-attr4" value="dateReturned" style="text;strokeColor=#6c8ebf;fillColor=#dae8fc;align=left;verticalAlign=top;spacingLeft=4;spacingRight=4;overflow=hidden;rotatable=0;points=[[0,0.5],[1,0.5]];portConstraint=eastwest;whiteSpace=wrap;html=1;fontFamily=Comic Sans MS;fontStyle=0" parent="rental-entity" vertex="1">
          <mxGeometry y="92" width="160" height="22" as="geometry" />
        </mxCell>
        <mxCell id="rel-authors-books-1" value="" style="edgeStyle=orthogonalEdgeStyle;rounded=0;orthogonalLoop=1;jettySize=auto;html=1;endArrow=classic;endFill=1;dashed=1;fontFamily=Comic Sans MS;fontStyle=0" parent="1" source="authors-entity" target="books-entity" edge="1">
          <mxGeometry relative="1" as="geometry">
            <Array as="points">
              <mxPoint x="430" y="210" />
              <mxPoint x="430" y="210" />
            </Array>
          </mxGeometry>
        </mxCell>
        <mxCell id="rel-authors-books-2" value="" style="edgeStyle=orthogonalEdgeStyle;rounded=0;orthogonalLoop=1;jettySize=auto;html=1;endArrow=classic;endFill=1;dashed=1;fontFamily=Comic Sans MS;fontStyle=0" parent="1" source="books-entity" target="authors-entity" edge="1">
          <mxGeometry relative="1" as="geometry">
            <Array as="points">
              <mxPoint x="410" y="260" />
              <mxPoint x="410" y="260" />
            </Array>
          </mxGeometry>
        </mxCell>
        <mxCell id="rel-user-rental-1" value="" style="edgeStyle=orthogonalEdgeStyle;rounded=0;orthogonalLoop=1;jettySize=auto;html=1;endArrow=classic;endFill=1;fontFamily=Comic Sans MS;fontStyle=0" parent="1" source="user-entity" target="rental-entity" edge="1">
          <mxGeometry relative="1" as="geometry">
            <Array as="points">
              <mxPoint x="430" y="460" />
              <mxPoint x="430" y="460" />
            </Array>
          </mxGeometry>
        </mxCell>
        <mxCell id="rel-user-rental-2" value="" style="edgeStyle=orthogonalEdgeStyle;rounded=0;orthogonalLoop=1;jettySize=auto;html=1;endArrow=classic;endFill=1;dashed=1;fontFamily=Comic Sans MS;fontStyle=0" parent="1" source="rental-entity" target="user-entity" edge="1">
          <mxGeometry relative="1" as="geometry">
            <Array as="points">
              <mxPoint x="410" y="440" />
              <mxPoint x="410" y="440" />
            </Array>
          </mxGeometry>
        </mxCell>
        <mxCell id="rel-books-rental-1" value="" style="edgeStyle=orthogonalEdgeStyle;rounded=0;orthogonalLoop=1;jettySize=auto;html=1;endArrow=classic;endFill=1;dashed=1;fontFamily=Comic Sans MS;fontStyle=0" parent="1" edge="1">
          <mxGeometry relative="1" as="geometry">
            <Array as="points">
              <mxPoint x="640" y="340" />
              <mxPoint x="640" y="340" />
            </Array>
            <mxPoint x="640" y="296" as="sourcePoint" />
            <mxPoint x="640" y="400" as="targetPoint" />
          </mxGeometry>
        </mxCell>
        <mxCell id="rel-books-rental-2" value="" style="edgeStyle=orthogonalEdgeStyle;rounded=0;orthogonalLoop=1;jettySize=auto;html=1;endArrow=classic;endFill=1;dashed=1;fontFamily=Comic Sans MS;fontStyle=0" parent="1" source="rental-entity" target="books-entity" edge="1">
          <mxGeometry relative="1" as="geometry">
            <Array as="points">
              <mxPoint x="570" y="340" />
              <mxPoint x="570" y="340" />
            </Array>
          </mxGeometry>
        </mxCell>
      </root>
    </mxGraphModel>
  </diagram>
</mxfile>
